<svg xmlns="http://www.w3.org/2000/svg" xmlns:xlink="http://www.w3.org/1999/xlink" width="1000" zoomAndPan="magnify" viewBox="0 0 750 374.999991" height="500" preserveAspectRatio="xMidYMid meet" version="1.0"><defs><g/><clipPath id="43fdd0485f"><path d="M 47.355469 56.6875 L 265.976562 56.6875 L 265.976562 318.007812 L 47.355469 318.007812 Z M 47.355469 56.6875 " clip-rule="nonzero"/></clipPath><clipPath id="6c701d5977"><path d="M 114 87 L 265.976562 87 L 265.976562 288 L 114 288 Z M 114 87 " clip-rule="nonzero"/></clipPath></defs><g clip-path="url(#43fdd0485f)"><path fill="#164863" d="M 53.433594 228.320312 C 50.039062 217.746094 47.945312 206.589844 47.355469 195.035156 L 70.191406 188.300781 C 70.191406 188.257812 70.191406 188.222656 70.191406 188.183594 C 70.191406 180.847656 70.929688 173.6875 72.316406 166.761719 L 51.804688 153.550781 C 54.746094 142.769531 59.019531 132.542969 64.449219 123.058594 L 87.332031 129.75 C 91.660156 123.015625 96.695312 116.785156 102.363281 111.183594 L 92.3125 89.117188 C 100.4375 82.042969 109.449219 75.953125 119.144531 71.035156 L 132.472656 86.382812 C 141.046875 80.558594 150.398438 75.808594 160.332031 72.269531 L 162.414062 57.871094 C 167.675781 57.230469 173.035156 56.894531 178.46875 56.894531 C 183.90625 56.894531 189.261719 57.230469 194.523438 57.871094 L 195.597656 65.277344 C 197.644531 65.175781 199.703125 65.121094 201.773438 65.121094 C 225.214844 65.121094 247.128906 71.648438 265.800781 82.984375 C 251.042969 76.207031 234.625 72.417969 217.320312 72.417969 C 153.117188 72.417969 101.066406 124.46875 101.066406 188.675781 C 101.066406 252.882812 153.117188 304.933594 217.320312 304.933594 C 234.625 304.933594 251.042969 301.148438 265.800781 294.367188 C 247.128906 305.699219 225.214844 312.230469 201.773438 312.230469 C 189.066406 312.230469 176.808594 310.304688 165.269531 306.742188 L 160.027344 318.183594 C 148.222656 316.523438 136.921875 313.292969 126.339844 308.710938 L 129.203125 288.644531 C 123.976562 284.84375 119.042969 280.664062 114.484375 276.113281 L 94.371094 289.003906 C 85.5 281.597656 77.621094 273.035156 70.964844 263.558594 L 86.59375 245.472656 C 83.21875 240.066406 80.308594 234.339844 77.914062 228.347656 L 53.433594 228.320312 " fill-opacity="1" fill-rule="nonzero"/></g><g clip-path="url(#6c701d5977)"><path fill="#164863" d="M 265.800781 272.726562 C 253.90625 278.1875 240.671875 281.242188 226.726562 281.242188 C 174.976562 281.242188 133.019531 239.289062 133.019531 187.539062 C 133.019531 135.785156 174.976562 93.835938 226.726562 93.835938 C 240.671875 93.835938 253.90625 96.886719 265.800781 102.351562 C 250.753906 93.210938 233.089844 87.953125 214.195312 87.953125 C 159.195312 87.953125 114.609375 132.539062 114.609375 187.539062 C 114.609375 242.539062 159.195312 287.121094 214.195312 287.121094 C 233.089844 287.121094 250.75 281.863281 265.800781 272.726562 " fill-opacity="1" fill-rule="nonzero"/></g><g fill="#164863" fill-opacity="1"><g transform="translate(178.016888, 202.622794)"><g><path d="M 39.890625 -72.90625 L 49.375 -72.90625 C 50.96875 -72.90625 51.59375 -72.144531 51.25 -70.625 L 34.6875 -1.875 C 34.40625 -0.625 33.640625 0 32.390625 0 L 21.984375 0 C 20.796875 0 20.03125 -0.625 19.6875 -1.875 L 3.234375 -70.625 C 2.878906 -72.144531 3.503906 -72.90625 5.109375 -72.90625 L 14.578125 -72.90625 C 15.828125 -72.90625 16.59375 -72.28125 16.875 -71.03125 L 27.1875 -23.953125 L 37.59375 -71.03125 C 37.945312 -72.28125 38.710938 -72.90625 39.890625 -72.90625 Z M 39.890625 -72.90625 "/></g></g></g><g fill="#164863" fill-opacity="1"><g transform="translate(232.489653, 202.622794)"><g><path d="M 5.203125 -15 L 5.203125 -57.90625 C 5.203125 -62.84375 6.488281 -66.578125 9.0625 -69.109375 C 11.632812 -71.640625 15.347656 -72.90625 20.203125 -72.90625 L 31.875 -72.90625 C 36.800781 -72.90625 40.53125 -71.640625 43.0625 -69.109375 C 45.601562 -66.578125 46.875 -62.84375 46.875 -57.90625 L 46.875 -15 C 46.875 -10.132812 45.601562 -6.414062 43.0625 -3.84375 C 40.53125 -1.28125 36.800781 0 31.875 0 L 20.203125 0 C 15.347656 0 11.632812 -1.28125 9.0625 -3.84375 C 6.488281 -6.414062 5.203125 -10.132812 5.203125 -15 Z M 22.921875 -13.4375 L 29.578125 -13.4375 C 32.359375 -13.4375 33.75 -14.828125 33.75 -17.609375 L 33.75 -55.3125 C 33.75 -58.082031 32.359375 -59.46875 29.578125 -59.46875 L 22.921875 -59.46875 C 20.140625 -59.46875 18.75 -58.082031 18.75 -55.3125 L 18.75 -17.609375 C 18.75 -14.828125 20.140625 -13.4375 22.921875 -13.4375 Z M 22.921875 -13.4375 "/></g></g></g><g fill="#164863" fill-opacity="1"><g transform="translate(284.566858, 202.622794)"><g><path d="M 46.96875 -57.90625 L 46.96875 -46.65625 C 46.96875 -45.550781 46.414062 -45 45.3125 -45 L 35.515625 -45 C 34.398438 -45 33.84375 -45.550781 33.84375 -46.65625 L 33.84375 -55.203125 C 33.84375 -57.984375 32.457031 -59.375 29.6875 -59.375 L 23.015625 -59.375 C 20.242188 -59.375 18.859375 -57.984375 18.859375 -55.203125 L 18.859375 -17.390625 C 18.859375 -14.617188 20.242188 -13.234375 23.015625 -13.234375 L 29.6875 -13.234375 C 32.457031 -13.234375 33.84375 -14.617188 33.84375 -17.390625 L 33.84375 -26.25 C 33.84375 -27.351562 34.398438 -27.90625 35.515625 -27.90625 L 45.3125 -27.90625 C 46.414062 -27.90625 46.96875 -27.351562 46.96875 -26.25 L 46.96875 -15 C 46.96875 -10.132812 45.679688 -6.414062 43.109375 -3.84375 C 40.546875 -1.28125 36.832031 0 31.96875 0 L 20.3125 0 C 15.445312 0 11.710938 -1.28125 9.109375 -3.84375 C 6.503906 -6.414062 5.203125 -10.132812 5.203125 -15 L 5.203125 -57.90625 C 5.203125 -62.84375 6.503906 -66.578125 9.109375 -69.109375 C 11.710938 -71.640625 15.445312 -72.90625 20.3125 -72.90625 L 31.96875 -72.90625 C 36.832031 -72.90625 40.546875 -71.640625 43.109375 -69.109375 C 45.679688 -66.578125 46.96875 -62.84375 46.96875 -57.90625 Z M 46.96875 -57.90625 "/></g></g></g><g fill="#164863" fill-opacity="1"><g transform="translate(336.74822, 202.622794)"><g><path d="M 54.375 0 L 44.265625 0 C 43.359375 0 42.800781 -0.484375 42.59375 -1.453125 L 39.265625 -14.578125 L 19.6875 -14.578125 L 16.453125 -1.453125 C 16.242188 -0.484375 15.691406 0 14.796875 0 L 4.578125 0 C 3.328125 0 2.878906 -0.585938 3.234375 -1.765625 L 20.515625 -71.453125 C 20.722656 -72.421875 21.316406 -72.90625 22.296875 -72.90625 L 36.765625 -72.90625 C 37.734375 -72.90625 38.320312 -72.421875 38.53125 -71.453125 L 55.828125 -1.765625 C 56.171875 -0.585938 55.6875 0 54.375 0 Z M 36.03125 -26.65625 L 29.46875 -55 L 22.921875 -26.65625 Z M 36.03125 -26.65625 "/></g></g></g><g fill="#164863" fill-opacity="1"><g transform="translate(395.803766, 202.622794)"><g><path d="M 43.125 -72.90625 L 4.796875 -72.90625 C 3.679688 -72.90625 3.125 -72.351562 3.125 -71.25 L 3.125 -60.828125 C 3.125 -59.710938 3.679688 -59.15625 4.796875 -59.15625 L 16.875 -59.15625 L 16.875 -1.671875 C 16.875 -0.554688 17.429688 0 18.546875 0 L 29.375 0 C 30.476562 0 31.03125 -0.554688 31.03125 -1.671875 L 31.03125 -59.15625 L 43.125 -59.15625 C 44.226562 -59.15625 44.78125 -59.710938 44.78125 -60.828125 L 44.78125 -71.25 C 44.78125 -72.351562 44.226562 -72.90625 43.125 -72.90625 Z M 43.125 -72.90625 "/></g></g></g><g fill="#164863" fill-opacity="1"><g transform="translate(443.714818, 202.622794)"><g><path d="M 6.875 0 L 17.703125 0 C 18.816406 0 19.375 -0.554688 19.375 -1.671875 L 19.375 -71.25 C 19.375 -72.351562 18.816406 -72.90625 17.703125 -72.90625 L 6.875 -72.90625 C 5.757812 -72.90625 5.203125 -72.351562 5.203125 -71.25 L 5.203125 -1.671875 C 5.203125 -0.554688 5.757812 0 6.875 0 Z M 6.875 0 "/></g></g></g><g fill="#164863" fill-opacity="1"><g transform="translate(468.29526, 202.622794)"><g><path d="M 5.203125 -15 L 5.203125 -57.90625 C 5.203125 -62.84375 6.488281 -66.578125 9.0625 -69.109375 C 11.632812 -71.640625 15.347656 -72.90625 20.203125 -72.90625 L 31.875 -72.90625 C 36.800781 -72.90625 40.53125 -71.640625 43.0625 -69.109375 C 45.601562 -66.578125 46.875 -62.84375 46.875 -57.90625 L 46.875 -15 C 46.875 -10.132812 45.601562 -6.414062 43.0625 -3.84375 C 40.53125 -1.28125 36.800781 0 31.875 0 L 20.203125 0 C 15.347656 0 11.632812 -1.28125 9.0625 -3.84375 C 6.488281 -6.414062 5.203125 -10.132812 5.203125 -15 Z M 22.921875 -13.4375 L 29.578125 -13.4375 C 32.359375 -13.4375 33.75 -14.828125 33.75 -17.609375 L 33.75 -55.3125 C 33.75 -58.082031 32.359375 -59.46875 29.578125 -59.46875 L 22.921875 -59.46875 C 20.140625 -59.46875 18.75 -58.082031 18.75 -55.3125 L 18.75 -17.609375 C 18.75 -14.828125 20.140625 -13.4375 22.921875 -13.4375 Z M 22.921875 -13.4375 "/></g></g></g><g fill="#164863" fill-opacity="1"><g transform="translate(520.372465, 202.622794)"><g><path d="M 38.21875 -72.90625 L 48.015625 -72.90625 C 49.128906 -72.90625 49.6875 -72.351562 49.6875 -71.25 L 49.6875 -1.671875 C 49.6875 -0.554688 49.128906 0 48.015625 0 L 39.78125 0 C 38.945312 0 38.320312 -0.453125 37.90625 -1.359375 L 18.328125 -41.140625 L 18.328125 -1.671875 C 18.328125 -0.554688 17.773438 0 16.671875 0 L 6.875 0 C 5.757812 0 5.203125 -0.554688 5.203125 -1.671875 L 5.203125 -71.25 C 5.203125 -72.351562 5.757812 -72.90625 6.875 -72.90625 L 15.109375 -72.90625 C 15.941406 -72.90625 16.566406 -72.457031 16.984375 -71.5625 L 36.5625 -31.765625 L 36.5625 -71.25 C 36.5625 -72.351562 37.113281 -72.90625 38.21875 -72.90625 Z M 38.21875 -72.90625 "/></g></g></g><g fill="#164863" fill-opacity="1"><g transform="translate(575.261834, 202.622794)"><g><path d="M 54.375 0 L 44.265625 0 C 43.359375 0 42.800781 -0.484375 42.59375 -1.453125 L 39.265625 -14.578125 L 19.6875 -14.578125 L 16.453125 -1.453125 C 16.242188 -0.484375 15.691406 0 14.796875 0 L 4.578125 0 C 3.328125 0 2.878906 -0.585938 3.234375 -1.765625 L 20.515625 -71.453125 C 20.722656 -72.421875 21.316406 -72.90625 22.296875 -72.90625 L 36.765625 -72.90625 C 37.734375 -72.90625 38.320312 -72.421875 38.53125 -71.453125 L 55.828125 -1.765625 C 56.171875 -0.585938 55.6875 0 54.375 0 Z M 36.03125 -26.65625 L 29.46875 -55 L 22.921875 -26.65625 Z M 36.03125 -26.65625 "/></g></g></g><g fill="#164863" fill-opacity="1"><g transform="translate(634.317405, 202.622794)"><g><path d="M 19.375 -13.75 L 19.375 -71.25 C 19.375 -72.351562 18.816406 -72.90625 17.703125 -72.90625 L 6.875 -72.90625 C 5.757812 -72.90625 5.203125 -72.351562 5.203125 -71.25 L 5.203125 -1.671875 C 5.203125 -0.554688 5.757812 0 6.875 0 L 40 0 C 41.101562 0 41.65625 -0.554688 41.65625 -1.671875 L 41.65625 -12.078125 C 41.65625 -13.191406 41.101562 -13.75 40 -13.75 Z M 19.375 -13.75 "/></g></g></g><g fill="#164863" fill-opacity="1"><g transform="translate(194.518425, 246.196462)"><g><path d="M 18.4375 -31.171875 L 2.046875 -31.171875 C 1.578125 -31.171875 1.34375 -30.929688 1.34375 -30.453125 L 1.34375 -26 C 1.34375 -25.53125 1.578125 -25.296875 2.046875 -25.296875 L 7.21875 -25.296875 L 7.21875 -0.71875 C 7.21875 -0.238281 7.453125 0 7.921875 0 L 12.5625 0 C 13.03125 0 13.265625 -0.238281 13.265625 -0.71875 L 13.265625 -25.296875 L 18.4375 -25.296875 C 18.914062 -25.296875 19.15625 -25.53125 19.15625 -26 L 19.15625 -30.453125 C 19.15625 -30.929688 18.914062 -31.171875 18.4375 -31.171875 Z M 18.4375 -31.171875 "/></g></g></g><g fill="#164863" fill-opacity="1"><g transform="translate(214.99485, 246.196462)"><g><path d="M 20 -30.453125 L 20 -26 C 20 -25.5 19.757812 -25.25 19.28125 -25.25 L 8.28125 -25.25 L 8.28125 -18.390625 L 16.65625 -18.390625 C 17.132812 -18.390625 17.375 -18.140625 17.375 -17.640625 L 17.375 -13.21875 C 17.375 -12.71875 17.132812 -12.46875 16.65625 -12.46875 L 8.28125 -12.46875 L 8.28125 -5.875 L 19.28125 -5.875 C 19.757812 -5.875 20 -5.640625 20 -5.171875 L 20 -0.71875 C 20 -0.238281 19.757812 0 19.28125 0 L 2.890625 0 C 2.453125 0 2.234375 -0.238281 2.234375 -0.71875 L 2.234375 -30.453125 C 2.234375 -30.929688 2.453125 -31.171875 2.890625 -31.171875 L 19.28125 -31.171875 C 19.757812 -31.171875 20 -30.929688 20 -30.453125 Z M 20 -30.453125 "/></g></g></g><g fill="#164863" fill-opacity="1"><g transform="translate(237.207315, 246.196462)"><g><path d="M 20.078125 -24.765625 L 20.078125 -19.953125 C 20.078125 -19.472656 19.84375 -19.234375 19.375 -19.234375 L 15.1875 -19.234375 C 14.707031 -19.234375 14.46875 -19.472656 14.46875 -19.953125 L 14.46875 -23.609375 C 14.46875 -24.796875 13.875 -25.390625 12.6875 -25.390625 L 9.84375 -25.390625 C 8.65625 -25.390625 8.0625 -24.796875 8.0625 -23.609375 L 8.0625 -7.4375 C 8.0625 -6.25 8.65625 -5.65625 9.84375 -5.65625 L 12.6875 -5.65625 C 13.875 -5.65625 14.46875 -6.25 14.46875 -7.4375 L 14.46875 -11.21875 C 14.46875 -11.695312 14.707031 -11.9375 15.1875 -11.9375 L 19.375 -11.9375 C 19.84375 -11.9375 20.078125 -11.695312 20.078125 -11.21875 L 20.078125 -6.40625 C 20.078125 -4.332031 19.523438 -2.742188 18.421875 -1.640625 C 17.328125 -0.546875 15.742188 0 13.671875 0 L 8.6875 0 C 6.601562 0 5.003906 -0.546875 3.890625 -1.640625 C 2.785156 -2.742188 2.234375 -4.332031 2.234375 -6.40625 L 2.234375 -24.765625 C 2.234375 -26.867188 2.785156 -28.460938 3.890625 -29.546875 C 5.003906 -30.628906 6.601562 -31.171875 8.6875 -31.171875 L 13.671875 -31.171875 C 15.742188 -31.171875 17.328125 -30.628906 18.421875 -29.546875 C 19.523438 -28.460938 20.078125 -26.867188 20.078125 -24.765625 Z M 20.078125 -24.765625 "/></g></g></g><g fill="#164863" fill-opacity="1"><g transform="translate(259.508806, 246.196462)"><g><path d="M 13.984375 -18.4375 L 13.984375 -30.453125 C 13.984375 -30.929688 14.222656 -31.171875 14.703125 -31.171875 L 19.28125 -31.171875 C 19.789062 -31.171875 20.046875 -30.929688 20.046875 -30.453125 L 20.046875 -0.71875 C 20.046875 -0.238281 19.789062 0 19.28125 0 L 14.703125 0 C 14.222656 0 13.984375 -0.238281 13.984375 -0.71875 L 13.984375 -12.5625 L 8.28125 -12.5625 L 8.28125 -0.71875 C 8.28125 -0.238281 8.046875 0 7.578125 0 L 2.984375 0 C 2.484375 0 2.234375 -0.238281 2.234375 -0.71875 L 2.234375 -30.453125 C 2.234375 -30.929688 2.484375 -31.171875 2.984375 -31.171875 L 7.578125 -31.171875 C 8.046875 -31.171875 8.28125 -30.929688 8.28125 -30.453125 L 8.28125 -18.4375 Z M 13.984375 -18.4375 "/></g></g></g></svg>